<svg xmlns="http://www.w3.org/2000/svg" viewBox="0 0 512 512"><defs><linearGradient id="g" x1="0" y1="0" x2="1" y2="1"><stop stop-color="#ff335f"/><stop offset=".52" stop-color="#b80d38"/><stop offset="1" stop-color="#4ca7ff"/></linearGradient></defs><rect width="512" height="512" rx="120" fill="#07090f"/><rect x="54" y="54" width="404" height="404" rx="102" fill="url(#g)"/><path d="M176 374V140h101c71 0 116 35 116 96 0 43-24 75-65 88l79 50h-83l-70-45v45zm72-104h26c31 0 48-11 48-33 0-21-16-31-48-31h-26z" fill="#fff" transform="skewX(-7)" transform-origin="256 256"/><g transform="translate(418 412)"><circle r="60" fill="#fff" stroke="#111820" stroke-width="8"/><path d="M0-25 24-8 15 20H-15L-24-8Z M-50-29-32-37-30-51 M50-29 32-37 30-51 M-47 33-46 8-59 0 M47 33 46 8 59 0 M-14 56 0 40 14 56" fill="#111820" stroke="#111820" stroke-width="5"/><path d="M0-25V-55M24-8 54-23M15 20 34 48M-15 20-34 48M-24-8-54-23" stroke="#111820" stroke-width="4"/></g></svg>
